PathFileType	4	(X/Y/Z)	Walk9.trc
DataRate	CameraRate	NumFrames	NumMarkers	Units	OrigDataRate	OrigDataStartFrame	OrigNumFrames
200.000000	200.000000	8	61	mm	200.000000	295	503
Frame#	Times		LFHD		RFHD		CLAV		LASI		RASI		RACR1		RUA1		RFA1		RWRR		RCAR		LACR1		LUA1		LWRU		RTH3		RTB4		LTH1		LTH3		LTH4		LTB1		LTB2		LTB4		LLFC		RTB1		LCAR		LFA1		RTB3		STRN		RMFC		RMT5		RToe		RLFC		LTH2		RTH2		RMT1		LBHD		LTB3		RTB2		LWRR		LElbow		RMMAL		RTH4		RWRU		RLMAL		RCAL		LPSI		RElbow		RTH1		RBHD		T10		RPSI		RBack		LMFC		C7		RElbowM		LElbowM		LLMAL		LCAL		LMT5		LToe		LMT1		LMMAL
			X1	Y1	Z1	X2	Y2	Z2	X3	Y3	Z3	X4	Y4	Z4	X5	Y5	Z5	X6	Y6	Z6	X7	Y7	Z7	X8	Y8	Z8	X9	Y9	Z9	X10	Y10	Z10	X11	Y11	Z11	X12	Y12	Z12	X13	Y13	Z13	X14	Y14	Z14	X15	Y15	Z15	X16	Y16	Z16	X17	Y17	Z17	X18	Y18	Z18	X19	Y19	Z19	X20	Y20	Z20	X21	Y21	Z21	X22	Y22	Z22	X23	Y23	Z23	X24	Y24	Z24	X25	Y25	Z25	X26	Y26	Z26	X27	Y27	Z27	X28	Y28	Z28	X29	Y29	Z29	X30	Y30	Z30	X31	Y31	Z31	X32	Y32	Z32	X33	Y33	Z33	X34	Y34	Z34	X35	Y35	Z35	X36	Y36	Z36	X37	Y37	Z37	X38	Y38	Z38	X39	Y39	Z39	X40	Y40	Z40	X41	Y41	Z41	X42	Y42	Z42	X43	Y43	Z43	X44	Y44	Z44	X45	Y45	Z45	X46	Y46	Z46	X47	Y47	Z47	X48	Y48	Z48	X49	Y49	Z49	X50	Y50	Z50	X51	Y51	Z51	X52	Y52	Z52	X53	Y53	Z53	X54	Y54	Z54	X55	Y55	Z55	X56	Y56	Z56	X57	Y57	Z57	X58	Y58	Z58	X59	Y59	Z59	X60	Y60	Z60	X61	Y61	Z61

295	1.475	-45.051	1586.9	-80.192	-52.231	1587.4	19.239	-100.77	1313	-33.558	-129.64	907.06	-136.78	-122.5	920.6	112.11	-180.37	1349.1	130.63	-207.08	1183.4	189.23	-180.31	899.54	261.88	-109.64	795.83	238.64	-114.72	729.01	287.58	-165.63	1362.9	-188.42	-159.46	1193.8	-259.74	64.49	885.19	-291.43	-60.482	607.14	161.59	27.108	286.01	105.89	-209.55	745.51	-196.87	-251.53	582.55	-161.86	-231.74	663.52	-180.87	-276.54	343.16	-69.741	-318.95	259.84	-120.39	-304.08	261.76	-61.005	-293.57	445.3	-138.31	34.03	372.12	111.32	90.954	821.43	-328.81	-44.174	940.6	-318.16	19.816	201.42	97.483	-82.028	1178	-27.605	-6.0792	470.45	14.925	68.651	51.308	124.29	148.82	77.883	84.984	5.5428	478.47	139.24	-177.06	655.34	-158.8	-50.483	712	167.48	104.31	71.931	48.577	-188.28	1527.9	-112.23	-326.18	180.76	-51.067	-18.765	287.72	146.23	14.464	839.59	-305.65	-147.93	1040.5	-299.97	-17.72	111.38	32.986	-98.369	680.48	179.85	-169.45	778.99	268.29	-35.716	91.003	112.99	-82.029	61.182	64.473	-301.78	966.58	-55.237	-232.22	1019.9	229.51	-139.59	755.2	199.62	-195.56	1534.4	30.707	-288.85	1209.3	-30.323	-296.92	959.61	44.36	-292	1295.3	31.4	-318.66	445.83	-6.5067	-207.79	1419	-37.456	-252.15	1010.3	152.84	-164.36	1011.4	-233.44	-401.64	79.285	-86.787	-459.3	57.992	-44.053	-300.34	23.892	-95.72	-211.1	25.76	-43.005	-268.27	31.6	-14.811	-384.16	99.453	-8.5759
296	1.48	-37.834	1586.1	-80.131	-45.155	1586.5	19.297	-93.356	1311.9	-33.627	-123.11	906.15	-137.04	-114.55	919.49	112.07	-172.9	1348.2	130.56	-200.72	1182.8	189.3	-175.17	898.94	262.57	-104.58	795.1	239.88	-110.19	728.17	288.66	-158.05	1362	-188.41	-151.22	1193	-259.95	75.832	887.65	-290.39	-53.84	605.55	161.65	40.94	286.16	105.95	-204.34	745.16	-196.92	-247.34	582.47	-161.93	-227.03	663.29	-181	-273.97	343	-69.882	-317.18	260.08	-120.53	-302.23	261.83	-61.158	-290.36	445.45	-138.32	44.686	372.49	111.25	103.7	824.42	-327.67	-33.341	941.53	-318.01	36.787	201.32	97.702	-74.782	1176.8	-27.609	-0.24835	468.62	14.978	91.256	52.857	124.37	170.19	82.298	84.529	12.899	477.45	139.15	-172.38	654.72	-159.16	-43.311	710.34	167.6	125.78	74.773	48.48	-180.89	1526.8	-112.37	-324.89	181	-51.301	-4.6898	286.17	146.6	26.641	841.33	-305.28	-138.59	1040	-300.6	2.3083	109.92	33.467	-91.329	679.05	180.07	-164.65	778.34	269.07	-14.557	88.842	113.6	-60.072	57.367	65.219	-294.81	965.54	-54.15	-226.6	1019.4	229.69	-132.13	753.91	200.04	-188.38	1533.2	30.541	-281.58	1208.4	-30.182	-289.4	958.55	45.334	-284.6	1294.5	31.35	-314.91	446.04	-6.4261	-200.29	1418.1	-37.601	-246.12	1009.8	152.97	-155.42	1010.4	-234.3	-401.27	80.104	-86.85	-459.05	59.235	-44.061	-300.37	23.909	-95.663	-211.01	25.619	-43.026	-268.22	31.569	-14.861	-383.54	100.18	-8.6484
297	1.485	-30.611	1585.3	-80.077	-38.065	1585.6	19.349	-85.923	1310.8	-33.687	-116.54	905.24	-137.27	-106.55	918.39	112.04	-165.38	1347.3	130.5	-194.23	1182.2	189.39	-169.93	898.34	263.25	-99.452	794.35	241.07	-105.54	727.33	289.71	-150.49	1361	-188.37	-142.96	1192.3	-260.13	86.97	889.98	-289.36	-47.309	603.85	161.84	54.472	286.39	106.03	-199.05	744.82	-196.94	-243.05	582.4	-161.98	-222.22	663.06	-181.11	-271.29	342.84	-70.015	-315.33	260.33	-120.66	-300.3	261.9	-61.313	-287.01	445.6	-138.33	55.101	372.83	111.22	116.15	827.28	-326.55	-22.657	942.4	-317.83	53.396	201.41	97.939	-67.501	1175.5	-27.599	5.42	466.59	15.029	113.36	54.691	124.4	190.98	86.92	84.01	20.092	476.31	139.07	-167.61	654.12	-159.51	-36.19	708.56	167.66	146.71	77.861	48.335	-173.5	1525.6	-112.52	-323.55	181.24	-51.552	9.0927	284.75	146.96	38.588	842.98	-304.88	-129.28	1039.5	-301.19	21.968	108.77	33.908	-84.358	677.56	180.34	-159.75	777.69	269.84	6.2186	87.038	114.17	-38.46	53.963	65.901	-287.78	964.49	-53.03	-220.86	1018.9	229.88	-124.64	752.59	200.44	-181.19	1531.9	30.382	-274.29	1207.6	-30.004	-281.82	957.5	46.339	-277.18	1293.6	31.341	-311.02	446.23	-6.3375	-192.77	1417.1	-37.724	-240.03	1009.3	153.12	-146.49	1009.5	-235.09	-400.85	80.97	-86.949	-458.78	60.551	-44.115	-300.38	23.925	-95.615	-210.92	25.476	-43.033	-268.17	31.537	-14.91	-382.9	100.94	-8.7508
298	1.49	-23.381	1584.4	-80.03	-30.959	1584.7	19.395	-78.47	1309.7	-33.738	-109.91	904.35	-137.48	-98.485	917.3	112.02	-157.82	1346.4	130.47	-187.61	1181.5	189.52	-164.57	897.74	263.92	-94.236	793.59	242.22	-100.79	726.49	290.73	-142.94	1360	-188.31	-134.67	1191.5	-260.26	97.906	892.17	-288.35	-40.859	602.05	162.17	67.674	286.69	106.15	-193.66	744.49	-196.94	-238.64	582.33	-162.01	-217.31	662.84	-181.19	-268.51	342.66	-70.14	-313.38	260.61	-120.8	-298.28	261.98	-61.471	-283.51	445.75	-138.32	65.266	373.14	111.24	128.31	830	-325.45	-12.128	943.21	-317.62	69.591	201.66	98.191	-60.184	1174.3	-27.577	10.96	464.37	15.074	134.86	56.764	124.39	211.13	91.69	83.454	27.139	475.08	139.01	-162.73	653.54	-159.83	-29.108	706.67	167.65	167.05	81.148	48.158	-166.11	1524.5	-112.65	-322.14	181.49	-51.819	22.538	283.45	147.29	50.303	844.55	-304.45	-120.02	1039	-301.71	41.19	107.93	34.3	-77.432	676	180.65	-154.75	777.04	270.62	26.518	85.571	114.67	-17.284	50.958	66.498	-280.69	963.43	-51.883	-215.02	1018.4	230.08	-117.1	751.28	200.8	-173.98	1530.7	30.232	-266.98	1206.7	-29.789	-274.17	956.44	47.372	-269.72	1292.7	31.378	-307.01	446.4	-6.2405	-185.24	1416.1	-37.821	-233.85	1008.8	153.29	-137.59	1008.6	-235.79	-400.39	81.888	-87.085	-458.47	61.944	-44.211	-300.38	23.94	-95.574	-210.83	25.331	-43.026	-268.13	31.504	-14.956	-382.22	101.74	-8.8825
299	1.495	-16.147	1583.6	-79.988	-23.836	1583.8	19.435	-70.999	1308.5	-33.774	-103.21	903.46	-137.66	-90.369	916.24	112.01	-150.2	1345.5	130.47	-180.86	1180.9	189.67	-159.1	897.14	264.59	-88.932	792.82	243.32	-95.913	725.65	291.71	-135.41	1359.1	-188.21	-126.36	1190.8	-260.36	108.64	894.21	-287.37	-34.463	600.16	162.66	80.515	287.04	106.29	-188.16	744.16	-196.91	-234.1	582.27	-162.02	-212.27	662.62	-181.24	-265.6	342.48	-70.258	-311.33	260.9	-120.94	-296.16	262.07	-61.632	-279.86	445.9	-138.3	75.176	373.42	111.31	140.17	832.57	-324.37	-1.761	943.95	-317.4	85.319	202.04	98.455	-52.83	1173.2	-27.545	16.408	461.98	15.109	155.69	59.023	124.35	230.59	96.539	82.891	34.062	473.76	138.97	-157.73	652.96	-160.11	-22.05	704.7	167.56	186.73	84.575	47.966	-158.71	1523.3	-112.78	-320.67	181.77	-52.1	35.605	282.27	147.57	61.782	846.02	-304	-110.81	1038.5	-302.19	59.906	107.36	34.634	-70.527	674.41	181.03	-149.64	776.4	271.39	46.247	84.415	115.09	3.3642	48.336	66.99	-273.52	962.36	-50.711	-209.07	1018	230.31	-109.51	750	201.12	-166.75	1529.5	30.094	-259.64	1205.8	-29.535	-266.47	955.39	48.429	-262.22	1291.9	31.462	-302.85	446.56	-6.1344	-177.7	1415.1	-37.89	-227.6	1008.3	153.49	-128.71	1007.7	-236.42	-399.89	82.862	-87.259	-458.14	63.42	-44.35	-300.36	23.954	-95.54	-210.73	25.185	-43.005	-268.09	31.47	-14.999	-381.52	102.58	-9.0431
300	1.5	-8.9076	1582.8	-79.952	-16.697	1582.9	19.47	-63.509	1307.5	-33.793	-96.436	902.59	-137.82	-82.2	915.19	112.01	-142.55	1344.6	130.5	-173.99	1180.2	189.86	-153.52	896.54	265.26	-83.536	792.05	244.38	-90.921	724.81	292.66	-127.9	1358.1	-188.09	-118.04	1190.1	-260.41	119.17	896.12	-286.41	-28.092	598.22	163.3	92.968	287.41	106.45	-182.53	743.84	-196.84	-229.43	582.21	-161.99	-207.11	662.4	-181.25	-262.58	342.29	-70.369	-309.18	261.23	-121.09	-293.95	262.18	-61.797	-276.05	446.06	-138.27	84.827	373.64	111.41	151.75	834.97	-323.32	8.4402	944.61	-317.15	100.53	202.52	98.722	-45.438	1172	-27.504	21.8	459.46	15.129	175.74	61.411	124.28	249.29	101.39	82.348	40.883	472.37	138.94	-152.6	652.41	-160.35	-14.998	702.67	167.4	205.69	88.077	47.774	-151.31	1522.2	-112.89	-319.12	182.06	-52.396	48.254	281.18	147.81	73.024	847.39	-303.52	-101.66	1038	-302.6	78.046	107.05	34.899	-63.616	672.8	181.47	-144.43	775.76	272.15	65.313	83.534	115.41	23.391	46.073	67.357	-266.28	961.29	-49.52	-203.01	1017.5	230.55	-101.83	748.75	201.4	-159.51	1528.2	29.969	-252.28	1204.9	-29.24	-258.7	954.35	49.507	-254.7	1291	31.597	-298.56	446.71	-6.0187	-170.16	1414.1	-37.927	-221.28	1007.8	153.72	-119.87	1006.9	-236.96	-399.35	83.897	-87.469	-457.77	64.983	-44.529	-300.34	23.967	-95.512	-210.64	25.039	-42.968	-268.05	31.434	-15.037	-380.77	103.48	-9.2327
301	1.505	-1.6637	1581.9	-79.92	-9.5404	1582	19.5	-56.001	1306.4	-33.792	-89.578	901.73	-137.94	-73.98	914.18	112.02	-134.85	1343.7	130.56	-166.99	1179.6	190.08	-147.81	895.93	265.92	-78.041	791.26	245.39	-85.805	723.97	293.58	-120.4	1357.2	-187.94	-109.7	1189.3	-260.42	129.51	897.87	-285.49	-21.718	596.25	164.1	105.01	287.78	106.62	-176.77	743.51	-196.73	-224.61	582.16	-161.94	-201.8	662.19	-181.22	-259.44	342.09	-70.471	-306.93	261.57	-121.23	-291.63	262.29	-61.966	-272.07	446.22	-138.23	94.221	373.81	111.54	163.05	837.2	-322.31	18.471	945.19	-316.88	115.18	203.06	98.985	-38.008	1170.9	-27.455	27.174	456.85	15.129	194.94	63.86	124.2	267.19	106.16	81.849	47.627	470.93	138.92	-147.34	651.86	-160.54	-7.9331	700.61	167.18	223.88	91.583	47.595	-143.9	1521	-112.99	-317.51	182.38	-52.706	60.455	280.18	148	84.027	848.65	-303.03	-92.572	1037.5	-302.95	95.544	106.94	35.085	-56.67	671.2	181.98	-139.09	775.13	272.91	83.627	82.887	115.62	42.703	44.139	67.579	-258.97	960.22	-48.312	-196.83	1017	230.82	-94.055	747.55	201.64	-152.25	1527	29.862	-244.9	1204	-28.906	-250.87	953.32	50.602	-247.16	1290.1	31.785	-294.12	446.84	-5.8932	-162.6	1413.1	-37.929	-214.87	1007.3	153.98	-111.08	1006	-237.41	-398.75	84.997	-87.714	-457.36	66.639	-44.747	-300.29	23.979	-95.489	-210.56	24.895	-42.917	-268.01	31.396	-15.069	-379.98	104.42	-9.4508
302	1.51	5.5846	1581.1	-79.891	-2.3654	1581.1	19.526	-48.476	1305.3	-33.766	-82.63	900.88	-138.04	-65.713	913.2	112.05	-127.11	1342.8	130.66	-159.87	1178.9	190.34	-141.98	895.33	266.57	-72.445	790.46	246.35	-80.563	723.13	294.47	-112.93	1356.2	-187.75	-101.37	1188.6	-260.38	139.64	899.46	-284.6	-15.308	594.27	165.02	116.62	288.13	106.8	-170.86	743.18	-196.59	-219.63	582.1	-161.85	-196.35	661.97	-181.16	-256.16	341.89	-70.567	-304.56	261.94	-121.37	-289.19	262.43	-62.139	-267.93	446.38	-138.18	103.36	373.9	111.7	174.06	839.25	-321.33	28.328	945.69	-316.6	129.23	203.63	99.231	-30.537	1169.8	-27.397	32.567	454.19	15.104	213.21	66.299	124.1	284.24	110.76	81.41	54.317	469.44	138.9	-141.92	651.31	-160.69	-0.83221	698.53	166.88	241.23	95.015	47.435	-136.5	1519.9	-113.07	-315.82	182.72	-53.027	72.18	279.23	148.11	94.79	849.8	-302.53	-83.567	1037	-303.23	112.33	107	35.18	-49.662	669.61	182.56	-133.64	774.5	273.67	101.11	82.427	115.7	61.211	42.5	67.638	-251.57	959.16	-47.094	-190.54	1016.5	231.12	-86.165	746.42	201.87	-144.96	1525.8	29.775	-237.49	1203.1	-28.53	-242.97	952.3	51.708	-239.58	1289.2	32.029	-289.53	446.96	-5.7583	-155.05	1412.1	-37.892	-208.39	1006.8	154.28	-102.33	1005.2	-237.79	-398.1	86.165	-87.995	-456.9	68.396	-45.006	-300.24	23.991	-95.471	-210.47	24.755	-42.853	-267.96	31.356	-15.094	-379.15	105.42	-9.6974
